<svg xmlns="http://www.w3.org/2000/svg" xmlns:xlink="http://www.w3.org/1999/xlink" xmlns:lucid="lucid" width="1580" height="900"><g transform="translate(-40 -240)" lucid:page-tab-id="I9k7EqZXAqFM"><path d="M0 0h1760v1360H0z" fill="#fff"/><path d="M1278.08 672.5c0-6.9 5.6-12.5 12.5-12.5h118.85c6.9 0 12.5 5.6 12.5 12.5s-5.6 12.5-12.5 12.5h-118.86c-6.9 0-12.5-5.6-12.5-12.5z" stroke="#fcc438" stroke-width="2" fill="#fcc438"/><use xlink:href="#a" transform="matrix(1,0,0,1,1283.075,665) translate(0.07499999999998863 14.4)"/><path d="M968 932.58l-39.32 3.32-43.36 1.86-38.9.07-31.85-1.28-25.17-2.07-19.77-2.46-15.6-2.6-12.5-2.64-10.07-2.57-8.26-2.47-.47-.16" stroke="#19967d" stroke-width="2" fill="none"/><path d="M969 932.5l.12 1-1.07.08-.17-2 1.24-.1z" fill="#19967d"/><path d="M742.27 916.6l-19.38 4.95 13.65 14.6" stroke="#19967d" stroke-width="2" fill="none"/><path d="M280 380h1180v60H280z" stroke="#000" stroke-width="2" fill="#b391b5"/><use xlink:href="#b" transform="matrix(1,0,0,1,285.0000000000001,385) translate(546.075 30.025)"/><use xlink:href="#c" transform="matrix(1,0,0,1,285.0000000000001,385) translate(574.0250000000001 30.025)"/><path d="M339.05 1040h380v80h-380z" stroke="#000" stroke-width="2" fill="#b2d6ef"/><use xlink:href="#d" transform="matrix(1,0,0,1,344.04957880352686,1045) translate(31.67500000000001 27.525)"/><use xlink:href="#e" transform="matrix(1,0,0,1,344.04957880352686,1045) translate(99.52500000000002 27.525)"/><use xlink:href="#f" transform="matrix(1,0,0,1,344.04957880352686,1045) translate(115.52500000000002 27.525)"/><use xlink:href="#g" transform="matrix(1,0,0,1,344.04957880352686,1045) translate(125.52500000000002 27.525)"/><use xlink:href="#h" transform="matrix(1,0,0,1,344.04957880352686,1045) translate(291.425 27.525)"/><use xlink:href="#i" transform="matrix(1,0,0,1,344.04957880352686,1045) translate(87.07499999999999 49.125)"/><use xlink:href="#j" transform="matrix(1,0,0,1,344.04957880352686,1045) translate(200.075 49.125)"/><path d="M340 860h380v60H340z" stroke="#000" stroke-width="2" fill="#7ab648"/><use xlink:href="#k" transform="matrix(1,0,0,1,345,865) translate(28.69999999999999 30.025)"/><use xlink:href="#l" transform="matrix(1,0,0,1,345,865) translate(194.6 30.025)"/><use xlink:href="#f" transform="matrix(1,0,0,1,345,865) translate(281.4 30.025)"/><use xlink:href="#c" transform="matrix(1,0,0,1,345,865) translate(291.4 30.025)"/><path d="M529.05 1037.18V980h.95v-57.18" stroke="#0c7cba" stroke-width="2" fill="none"/><path d="M518.87 1019.82l10.18 17.22 10.18-17.22M540.18 940.18L530 922.96l-10.18 17.22" stroke="#0c7cba" stroke-width="2" fill="none"/><path d="M60 260h1540v60H60z" stroke="#999" stroke-width="2" fill="#e5e5e5"/><use xlink:href="#m" transform="matrix(1,0,0,1,65,265) translate(727.575 30.025)"/><path d="M831 339.5c0 .55-.45 1-1 1s-1-.45-1-1 .45-1 1-1 1 .45 1 1zm0 4.2c0 .55-.45 1-1 1s-1-.45-1-1 .45-1 1-1 1 .45 1 1zm0 4.2c0 .55-.45 1-1 1s-1-.45-1-1 .45-1 1-1 1 .45 1 1zm0 4.2c0 .55-.45 1-1 1s-1-.45-1-1 .45-1 1-1 1 .45 1 1zm0 4.2c0 .55-.45 1-1 1s-1-.45-1-1 .45-1 1-1 1 .45 1 1z" fill="#834187"/><path d="M830 324.24l4.64 14.26h-9.28zM830 375.76l-4.64-14.26h9.28z" stroke="#834187" stroke-width="2" fill="#fff"/><path d="M280 540h220v60H280z" stroke="#000" stroke-width="2" fill="#ffeca9"/><use xlink:href="#n" transform="matrix(1,0,0,1,285,545) translate(28.599999999999994 30.025)"/><use xlink:href="#e" transform="matrix(1,0,0,1,285,545) translate(85.55 30.025)"/><use xlink:href="#f" transform="matrix(1,0,0,1,285,545) translate(101.55 30.025)"/><use xlink:href="#o" transform="matrix(1,0,0,1,285,545) translate(111.55 30.025)"/><use xlink:href="#p" transform="matrix(1,0,0,1,285,545) translate(139.5 30.025)"/><path d="M280 600h220v60H280z" stroke="#000" stroke-width="2" fill="#ef8d22"/><use xlink:href="#n" transform="matrix(1,0,0,1,285,605) translate(22.099999999999994 30.025)"/><use xlink:href="#e" transform="matrix(1,0,0,1,285,605) translate(79.05 30.025)"/><use xlink:href="#f" transform="matrix(1,0,0,1,285,605) translate(95.05 30.025)"/><use xlink:href="#j" transform="matrix(1,0,0,1,285,605) translate(105.05 30.025)"/><path d="M840 540h280v60H840z" stroke="#000" stroke-width="2" fill="#ffeca9"/><use xlink:href="#n" transform="matrix(1,0,0,1,845,545) translate(57.625 30.025)"/><use xlink:href="#q" transform="matrix(1,0,0,1,845,545) translate(114.575 30.025)"/><use xlink:href="#f" transform="matrix(1,0,0,1,845,545) translate(132.525 30.025)"/><use xlink:href="#o" transform="matrix(1,0,0,1,845,545) translate(142.525 30.025)"/><use xlink:href="#p" transform="matrix(1,0,0,1,845,545) translate(170.47500000000002 30.025)"/><path d="M928.08 672.5c0-6.9 5.6-12.5 12.5-12.5h118.85c6.9 0 12.5 5.6 12.5 12.5s-5.6 12.5-12.5 12.5H940.57c-6.9 0-12.5-5.6-12.5-12.5z" stroke="#fcc438" stroke-width="2" fill="#fcc438"/><use xlink:href="#a" transform="matrix(1,0,0,1,933.075,665) translate(0.07499999999998863 14.4)"/><path d="M560 540h220v60H560z" stroke="#000" stroke-width="2" fill="#ffeca9"/><use xlink:href="#n" transform="matrix(1,0,0,1,565,545) translate(28.099999999999994 30.025)"/><use xlink:href="#r" transform="matrix(1,0,0,1,565,545) translate(85.05 30.025)"/><use xlink:href="#f" transform="matrix(1,0,0,1,565,545) translate(102.05 30.025)"/><use xlink:href="#o" transform="matrix(1,0,0,1,565,545) translate(112.05 30.025)"/><use xlink:href="#p" transform="matrix(1,0,0,1,565,545) translate(140 30.025)"/><path d="M560 600h220v60H560z" stroke="#000" stroke-width="2" fill="#ef8d22"/><use xlink:href="#n" transform="matrix(1,0,0,1,565,605) translate(21.599999999999994 30.025)"/><use xlink:href="#r" transform="matrix(1,0,0,1,565,605) translate(78.55 30.025)"/><use xlink:href="#f" transform="matrix(1,0,0,1,565,605) translate(95.55 30.025)"/><use xlink:href="#j" transform="matrix(1,0,0,1,565,605) translate(105.55 30.025)"/><path d="M390 537.18v-94.36M379.82 519.82L390 537.04l10.18-17.22M400.18 460.18L390 442.98l-10.18 17.2M670 537.18V490h.08v-47.18" stroke="#ef8d22" stroke-width="2" fill="none"/><path d="M659.82 519.82L670 537.04l10.18-17.22M680.26 460.18l-10.18-17.22-10.18 17.22M980 537.18v-94.36M969.82 519.82L980 537.04l10.18-17.22M990.18 460.18L980 442.96l-10.18 17.22" stroke="#ef8d22" stroke-width="2" fill="none"/><path d="M564.4 773.1l.07-.1.13-.18.15-.17.17-.2.2-.2.23-.2.27-.24.32-.24.4-.28.45-.3.55-.34.7-.38.88-.43 1.13-.5 1.48-.57 2-.7 2.8-.82 4.08-1.02 6.36-1.32 10.77-1.75 21-2.5 59.4-4.48 133.27-8 11.8-1.4 5.5-.9 3.08-.63 1.9-.47 1.25-.37.87-.3h.02l7.65-3.08 5.78-2.74 4.5-2.47 3.6-2.26 2.94-2.1 2.43-2 2.04-1.87 1.73-1.8 1.5-1.75 1.3-1.7 1.1-1.7 1-1.7.85-1.7.74-1.73.65-1.8.55-1.88.45-1.98.36-2.14.24-2.34.12-2.66-.06-3.13-.3-3.97-.88-6.18-3.43-20.18-.3-3.95-.05-2.48" stroke="#7ab648" stroke-width="2" fill="none"/><path d="M565.23 773.4l-.23.6h-2.14l.5-1.3z" fill="#7ab648"/><path d="M882.2 679.1l-11.8-16.14-8.46 18.12M530.04 773l.03-.5.1-.74.12-.74.16-.73.2-.75.26-.74.3-.75.34-.77.4-.8.47-.82.55-.85.63-.88.75-.93.87-1 1.02-1.06 1.2-1.13 1.46-1.23 1.77-1.35 2.18-1.5 2.74-1.7 3.5-1.95 4.7-2.3 6.6-2.83 10.2-3.78 23.75-7.4 35.28-10.62 1.3-.46 6.5-2.56 5.17-2.54 4.25-2.52 3.57-2.5 3.04-2.53 2.65-2.56 2.33-2.64 2.06-2.76 1.84-2.9L664 698l1.5-3.46 1.33-3.94 1.18-4.63 1-5.8.75-8.23.2-9.12" stroke="#7ab648" stroke-width="2" fill="none"/><path d="M531.03 773l-.03 1h-2l.03-1.05z" fill="#7ab648"/><path d="M679.4 680.58l-9.48-17.62-10.88 16.8" stroke="#7ab648" stroke-width="2" fill="none"/><path d="M970 932.5c0-6.9 5.6-12.5 12.5-12.5h205c6.9 0 12.5 5.6 12.5 12.5s-5.6 12.5-12.5 12.5h-205c-6.9 0-12.5-5.6-12.5-12.5z" stroke="#19967d" stroke-width="2" fill="#19967d"/><use xlink:href="#s" transform="matrix(1,0,0,1,975,925) translate(14.104999999999999 14.4)"/><path d="M960 860h380v60H960z" stroke="#000" stroke-width="2" fill="#5abaa7"/><use xlink:href="#t" transform="matrix(1,0,0,1,965,865) translate(43.67499999999998 30.025)"/><use xlink:href="#l" transform="matrix(1,0,0,1,965,865) translate(156.67499999999998 30.025)"/><use xlink:href="#f" transform="matrix(1,0,0,1,965,865) translate(243.475 30.025)"/><use xlink:href="#u" transform="matrix(1,0,0,1,965,865) translate(253.475 30.025)"/><path d="M840 600h140v60H840z" stroke="#000" stroke-width="2" fill="#ef8d22"/><use xlink:href="#n" transform="matrix(1,0,0,1,845,605) translate(25.049999999999997 17.525)"/><use xlink:href="#q" transform="matrix(1,0,0,1,845,605) translate(82 17.525)"/><use xlink:href="#v" transform="matrix(1,0,0,1,845,605) translate(99.95 17.525)"/><use xlink:href="#j" transform="matrix(1,0,0,1,845,605) translate(23.574999999999996 39.125)"/><path d="M1000.04 687l.04.57.1.76.14.75.17.75.2.74.27.75.3.76.37.76.4.8.5.8.56.82.65.87.76.9.9.96 1.04 1 1.24 1.1 1.5 1.18 1.83 1.3 2.28 1.43 2.88 1.64 3.78 1.88 5.2 2.25 7.68 2.88 14.14 4.44 45.5 13.03 4.56 1.66 3.18 1.35 2.47 1.3 1.96 1.2 1.6 1.16 1.32 1.13 1.12 1.1.95 1.08.8 1.1.72 1.1.6 1.13.53 1.17.45 1.23.37 1.33.28 1.44.2 1.6.08 1.84-.05 2.16-.27 2.68-.64 3.6-1.57 6.04-6.58 22.16-.8 4.43-.34 3.45v.63" stroke="#fcc438" stroke-width="2" fill="none"/><path d="M1001.03 687l-2 .05L999 686h2z" fill="#fcc438"/><path d="M1096.54 778.38l7.13 18.68 12.94-15.24" stroke="#fcc438" stroke-width="2" fill="none"/><path d="M1084.97 947l-.05 2.02-.23 2.8-.36 2.6-.47 2.47-.57 2.34-.7 2.26-.8 2.2-.92 2.16-1.06 2.16-1.22 2.17-1.4 2.22-1.66 2.32-2 2.5-2.47 2.8-3.35 3.37-6 5.4-14.7 12.8-3.34 3.37-2.5 2.8-1.97 2.5-1.65 2.3-1.4 2.24-1.23 2.18-1.06 2.16-.92 2.16-.8 2.2-.7 2.26-.57 2.35-.47 2.47-.35 2.6-.23 2.8-.03 1.2" stroke="#19967d" stroke-width="2" fill="none"/><path d="M1085.97 947.05l-2-.05.03-1h2z" fill="#19967d"/><path d="M1022.47 1018.54l7.56 18.52 12.58-15.55" stroke="#19967d" stroke-width="2" fill="none"/><path d="M960 1040h380v80H960z" stroke="#000" stroke-width="2" fill="#b2d6ef"/><use xlink:href="#d" transform="matrix(1,0,0,1,965,1045) translate(31.17500000000001 27.525)"/><use xlink:href="#r" transform="matrix(1,0,0,1,965,1045) translate(99.02500000000002 27.525)"/><use xlink:href="#f" transform="matrix(1,0,0,1,965,1045) translate(116.02500000000002 27.525)"/><use xlink:href="#g" transform="matrix(1,0,0,1,965,1045) translate(126.02500000000002 27.525)"/><use xlink:href="#h" transform="matrix(1,0,0,1,965,1045) translate(291.925 27.525)"/><use xlink:href="#i" transform="matrix(1,0,0,1,965,1045) translate(87.07499999999999 49.125)"/><use xlink:href="#j" transform="matrix(1,0,0,1,965,1045) translate(200.075 49.125)"/><path d="M1014.7 946.78l-.4.48-.6.65-.68.67-.74.68-.84.7-.95.74-1.08.74-1.23.8-1.42.83-1.65.87-1.93.93-2.3 1-2.78 1.04-3.43 1.15-4.32 1.24-5.6 1.35-7.63 1.5-11.13 1.72-18.9 2.1-123.7 9.42-28.72 4-14.42 2.64-9.56 2.18-7.16 1.95-5.75 1.84-4.83 1.78-4.25 1.75-3.82 1.78-3.55 1.84-3.36 1.92-3.28 2.05-3.26 2.25-3.34 2.5-3.53 2.9-3.93 3.5-4.64 4.5-6.24 6.6-12.84 14.85-1.16 1.4" stroke="#19967d" stroke-width="2" fill="none"/><path d="M1015.47 947.42l-1.57-1.23.15-.2h2.53z" fill="#19967d"/><path d="M699.38 1017.8l-3.47 19.7 18.94-6.44" stroke="#19967d" stroke-width="2" fill="none"/><path d="M960 800h380v60H960z" stroke="#000" stroke-width="2" fill="#99d5ca" fill-opacity=".78"/><use xlink:href="#t" transform="matrix(1,0,0,1,965,805) translate(38.67499999999998 30.025)"/><use xlink:href="#l" transform="matrix(1,0,0,1,965,805) translate(151.67499999999998 30.025)"/><use xlink:href="#f" transform="matrix(1,0,0,1,965,805) translate(238.475 30.025)"/><use xlink:href="#j" transform="matrix(1,0,0,1,965,805) translate(248.475 30.025)"/><path d="M1180 540h280v60h-280z" stroke="#000" stroke-width="2" fill="#ffeca9"/><use xlink:href="#n" transform="matrix(1,0,0,1,1185,545) translate(57.625 30.025)"/><use xlink:href="#w" transform="matrix(1,0,0,1,1185,545) translate(114.575 30.025)"/><use xlink:href="#f" transform="matrix(1,0,0,1,1185,545) translate(132.525 30.025)"/><use xlink:href="#o" transform="matrix(1,0,0,1,1185,545) translate(142.525 30.025)"/><use xlink:href="#p" transform="matrix(1,0,0,1,1185,545) translate(170.47500000000002 30.025)"/><path d="M1180 600h140v60h-140z" stroke="#000" stroke-width="2" fill="#ef8d22"/><use xlink:href="#n" transform="matrix(1,0,0,1,1185,605) translate(25.049999999999997 17.525)"/><use xlink:href="#w" transform="matrix(1,0,0,1,1185,605) translate(82 17.525)"/><use xlink:href="#v" transform="matrix(1,0,0,1,1185,605) translate(99.95 17.525)"/><use xlink:href="#j" transform="matrix(1,0,0,1,1185,605) translate(23.574999999999996 39.125)"/><path d="M1320 537.18v-94.36M1309.82 519.82l10.18 17.22 10.18-17.22M1330.18 460.18L1320 442.96l-10.18 17.22" stroke="#ef8d22" stroke-width="2" fill="none"/><path d="M1349.96 687l-.05.44-.06.46-.08.44-.1.45-.13.42-.14.44-.17.43-.18.42-.2.44-.24.44-.24.44-.3.45-.3.44-.36.47-.4.5-.44.48-.5.5-.56.54-.64.55-.73.58-.84.6-1 .66-1.13.7-1.34.74-1.6.8-1.97.86-2.42.96-3.07 1.07-4.03 1.2-5.54 1.42-8.28 1.75-15.58 2.6-55.4 8.07-9 1.9-6.1 1.55-2.52.73-6.73 2.28-6.83 2.82-6.86 3.37-6.83 3.93-6.7 4.46-6.46 4.92-6.04 5.26-5.52 5.47-4.87 5.5-4.16 5.35-3.44 5.1-2.78 4.7-2.17 4.33-1.65 3.9-1.22 3.5-.87 3.15-.6 2.8-.35 2.53-.14 1.88" stroke="#fcc438" stroke-width="2" fill="none"/><path d="M1350.98 687.05l-2-.04.02-1h2z" fill="#fcc438"/><path d="M1143.73 778.2l6.65 18.87 13.33-14.9" stroke="#fcc438" stroke-width="2" fill="none"/><path d="M343 490c0-6.9 5.6-12.5 12.5-12.5h68.85c6.9 0 12.5 5.6 12.5 12.5s-5.6 12.5-12.5 12.5H355.5c-6.9 0-12.5-5.6-12.5-12.5z" stroke="#ef8d22" stroke-width="2" fill="#ef8d22"/><use xlink:href="#x" transform="matrix(1,0,0,1,348,482.5) translate(15.53 14.4)"/><path d="M980 600h140v60H980z" stroke="#000" stroke-width="2" fill="#fcc438"/><g><use xlink:href="#n" transform="matrix(1,0,0,1,985,605) translate(25.049999999999997 17.525)"/><use xlink:href="#q" transform="matrix(1,0,0,1,985,605) translate(82 17.525)"/><use xlink:href="#v" transform="matrix(1,0,0,1,985,605) translate(99.95 17.525)"/><use xlink:href="#u" transform="matrix(1,0,0,1,985,605) translate(28.574999999999996 39.125)"/></g><path d="M957.25 1039.25l-10.6-3.04-15.4-3.72-19.7-3.9-26.1-4.02-36.9-4.1-64-4.35-104.48-5.17-10.55-1.16-1.35-.2-16.78-2.83-12.2-2.8-9.22-2.65-7.17-2.53-5.7-2.38-4.66-2.26-3.87-2.15-3.25-2.07-2.78-1.98-2.4-1.93-2.08-1.88-1.83-1.85-1.62-1.84-1.43-1.83-1.28-1.83-1.17-1.87-1.03-1.9-.93-1.96-.83-2.05-.74-2.15-.64-2.3-.55-2.5-.43-2.77-.32-3.16-.18-3.77.06-5 1.55-24.55" stroke="#0c7cba" stroke-width="2" fill="none"/><path d="M937.78 1044.38l19.33-5.16-13.82-14.45M595.8 940.7l-9.27-17.74-11.07 16.66" stroke="#0c7cba" stroke-width="2" fill="none"/><path d="M820 326.8h136.92V380H820z" fill="#fff" fill-opacity="0"/><g><use xlink:href="#y" transform="matrix(1,0,0,1,825,331.8) translate(14.549999999999997 25.4)"/><use xlink:href="#z" transform="matrix(1,0,0,1,825,331.8) translate(43.55 25.4)"/></g><path d="M1320 600h140v60h-140z" stroke="#000" stroke-width="2" fill="#fcc438"/><g><use xlink:href="#n" transform="matrix(1,0,0,1,1325,605) translate(25.049999999999997 17.525)"/><use xlink:href="#w" transform="matrix(1,0,0,1,1325,605) translate(82 17.525)"/><use xlink:href="#v" transform="matrix(1,0,0,1,1325,605) translate(99.95 17.525)"/><use xlink:href="#u" transform="matrix(1,0,0,1,1325,605) translate(28.574999999999996 39.125)"/></g><path d="M459.13 787.5c0-6.9 5.6-12.5 12.5-12.5h116.75c6.9 0 12.5 5.6 12.5 12.5s-5.6 12.5-12.5 12.5H471.63c-6.9 0-12.5-5.6-12.5-12.5z" stroke="#7ab648" stroke-width="2" fill="#7ab648"/><g><use xlink:href="#A" transform="matrix(1,0,0,1,464.125,780) translate(0.125 14.4)"/></g><path d="M507.5 773l-.02-1.68-.17-2.54-.26-2.4-.36-2.3-.44-2.2-.53-2.14-.6-2.08-.7-2.03-.8-2-.9-2-1-2-1.1-2-1.26-2-1.4-2.1-1.62-2.14-1.84-2.27-2.16-2.4-2.6-2.65-3.24-3.03-4.42-3.78-8.4-6.53-17.18-13-4.42-3.8-3.24-3.02-2.6-2.64-2.15-2.4-1.85-2.27-1.6-2.14-1.42-2.08-1.25-2.02-1.12-2-1-2-.9-1.98-.78-2-.7-2.04-.6-2.08-.54-2.14-.44-2.2-.36-2.3-.26-2.4-.17-2.54-.02-.86" stroke="#7ab648" stroke-width="2" fill="none"/><path d="M508.54 774h-2l-.03-1 2-.05z" fill="#7ab648"/><path d="M443.65 678.65l-12.38-15.7-7.8 18.4" stroke="#7ab648" stroke-width="2" fill="none"/><path d="M340 800h380v60H340z" stroke="#000" stroke-width="2" fill="#c7e8ac"/><g><use xlink:href="#k" transform="matrix(1,0,0,1,345,805) translate(17.224999999999994 30.025)"/><use xlink:href="#l" transform="matrix(1,0,0,1,345,805) translate(183.125 30.025)"/><use xlink:href="#f" transform="matrix(1,0,0,1,345,805) translate(269.92499999999995 30.025)"/><use xlink:href="#u" transform="matrix(1,0,0,1,345,805) translate(279.92499999999995 30.025)"/></g><path d="M623.36 491.3c0-6.9 5.6-12.5 12.5-12.5h68.85c6.9 0 12.5 5.6 12.5 12.5s-5.6 12.5-12.5 12.5h-68.84c-6.9 0-12.5-5.6-12.5-12.5z" stroke="#ef8d22" stroke-width="2" fill="#ef8d22"/><g><use xlink:href="#x" transform="matrix(1,0,0,1,628.3567099737095,483.79316473269097) translate(15.53 14.4)"/></g><path d="M933 490c0-6.9 5.6-12.5 12.5-12.5h68.85c6.9 0 12.5 5.6 12.5 12.5s-5.6 12.5-12.5 12.5H945.5c-6.9 0-12.5-5.6-12.5-12.5z" stroke="#ef8d22" stroke-width="2" fill="#ef8d22"/><g><use xlink:href="#x" transform="matrix(1,0,0,1,938,482.5) translate(15.53 14.4)"/></g><path d="M1274 490c0-6.9 5.6-12.5 12.5-12.5h68.85c6.9 0 12.5 5.6 12.5 12.5s-5.6 12.5-12.5 12.5h-68.85c-6.9 0-12.5-5.6-12.5-12.5z" stroke="#ef8d22" stroke-width="2" fill="#ef8d22"/><g><use xlink:href="#x" transform="matrix(1,0,0,1,1279,482.5) translate(15.53 14.4)"/></g><path d="M428 982.5c0-6.9 5.6-12.5 12.5-12.5h177.1c6.9 0 12.5 5.6 12.5 12.5s-5.6 12.5-12.5 12.5H440.5c-6.9 0-12.5-5.6-12.5-12.5z" stroke="#0c7cba" stroke-width="2" fill="#0c7cba"/><g><use xlink:href="#B" transform="matrix(1,0,0,1,433,975) translate(6.630000000000004 14.4)"/></g><path d="M60 430c0-5.52 4.48-10 10-10h180c5.52 0 10 4.48 10 10v100c0 5.52-4.48 10-10 10H70c-5.52 0-10-4.48-10-10z" stroke="#ef8d22" stroke-width="2" fill="#fff"/><g><use xlink:href="#C" transform="matrix(1,0,0,1,65,425) translate(0 14.396484375)"/><use xlink:href="#D" transform="matrix(1,0,0,1,65,425) translate(75.6123046875 14.396484375)"/><use xlink:href="#E" transform="matrix(1,0,0,1,65,425) translate(0 32.396484375)"/><use xlink:href="#F" transform="matrix(1,0,0,1,65,425) translate(64.810546875 32.396484375)"/><use xlink:href="#E" transform="matrix(1,0,0,1,65,425) translate(0 50.396484375)"/><use xlink:href="#G" transform="matrix(1,0,0,1,65,425) translate(64.810546875 50.396484375)"/><use xlink:href="#E" transform="matrix(1,0,0,1,65,425) translate(0 68.396484375)"/><use xlink:href="#H" transform="matrix(1,0,0,1,65,425) translate(64.810546875 68.396484375)"/><use xlink:href="#I" transform="matrix(1,0,0,1,65,425) translate(0 86.396484375)"/><use xlink:href="#J" transform="matrix(1,0,0,1,65,425) translate(0 104.396484375)"/><use xlink:href="#K" transform="matrix(1,0,0,1,65,425) translate(75.6123046875 104.396484375)"/></g><path d="M262 484.44l2.97.13m3.96.17l5.95.26m3.96.17l5.95.26m3.95.17l5.95.26m3.96.17l5.94.26m3.97.16l5.94.26m3.98.17l5.94.25m3.96.17l5.95.26m3.96.17l2.96.13" stroke="#ef8d22" stroke-width="2" fill="none"/><path d="M262.07 483.44l-.1 2-.97-.05v-2zM342.4 486.93l-.27 2-.94-.05.08-2z" fill="#ef8d22"/><path d="M60 710c0-5.52 4.48-10 10-10h180c5.52 0 10 4.48 10 10v80c0 5.52-4.48 10-10 10H70c-5.52 0-10-4.48-10-10z" stroke="#7ab648" stroke-width="2" fill="#fff"/><g><use xlink:href="#L" transform="matrix(1,0,0,1,65,705) translate(0 14.396484375)"/><use xlink:href="#M" transform="matrix(1,0,0,1,65,705) translate(75.6123046875 14.396484375)"/><use xlink:href="#N" transform="matrix(1,0,0,1,65,705) translate(0 32.396484375)"/><use xlink:href="#O" transform="matrix(1,0,0,1,65,705) translate(75.6123046875 32.396484375)"/><use xlink:href="#N" transform="matrix(1,0,0,1,65,705) translate(0 50.396484375)"/><use xlink:href="#P" transform="matrix(1,0,0,1,65,705) translate(75.6123046875 50.396484375)"/><use xlink:href="#L" transform="matrix(1,0,0,1,65,705) translate(0 68.396484375)"/><use xlink:href="#Q" transform="matrix(1,0,0,1,65,705) translate(75.6123046875 68.396484375)"/></g><path d="M261.98 750.2l2.93.54m3.9.75l5.87 1.1m3.9.74l5.85 1.12m3.9.74l5.86 1.1m3.9.76l5.86 1.1m3.9.75l5.86 1.13m3.9.74l5.86 1.1m3.9.75l5.85 1.12m3.92.74l5.85 1.1m3.9.76l5.86 1.1m3.9.75l5.86 1.1m3.9.75l5.84 1.1m3.9.76l5.86 1.12m3.9.74l5.86 1.12m3.9.74l5.86 1.1m3.9.75l5.85 1.12m3.9.73l5.86 1.1m3.9.76l5.86 1.1m3.9.74l5.85 1.12m3.9.74l5.85 1.1m3.9.76l2.93.55" stroke="#7ab648" stroke-width="2" fill="none"/><path d="M262.2 749.2l-.38 1.97-.82-.15v-2.04zM458.25 786.5l-.13 1 .13 1.04-1.33-.25.38-1.97z" fill="#7ab648"/><path d="M1380 730c0-5.52 4.48-10 10-10h200c5.52 0 10 4.48 10 10v120c0 5.52-4.48 10-10 10h-200c-5.52 0-10-4.48-10-10z" stroke="#fcc438" stroke-width="2" fill="#fff"/><g><use xlink:href="#C" transform="matrix(1,0,0,1,1385,725) translate(0 14.396484375)"/><use xlink:href="#R" transform="matrix(1,0,0,1,1385,725) translate(75.6123046875 14.396484375)"/><use xlink:href="#S" transform="matrix(1,0,0,1,1385,725) translate(0 32.396484375)"/><use xlink:href="#T" transform="matrix(1,0,0,1,1385,725) translate(75.6123046875 32.396484375)"/><use xlink:href="#S" transform="matrix(1,0,0,1,1385,725) translate(0 50.396484375)"/><use xlink:href="#U" transform="matrix(1,0,0,1,1385,725) translate(75.6123046875 50.396484375)"/><use xlink:href="#S" transform="matrix(1,0,0,1,1385,725) translate(0 68.396484375)"/><use xlink:href="#V" transform="matrix(1,0,0,1,1385,725) translate(75.6123046875 68.396484375)"/><use xlink:href="#S" transform="matrix(1,0,0,1,1385,725) translate(0 86.396484375)"/><use xlink:href="#W" transform="matrix(1,0,0,1,1385,725) translate(75.6123046875 86.396484375)"/><use xlink:href="#C" transform="matrix(1,0,0,1,1385,725) translate(0 104.396484375)"/><use xlink:href="#X" transform="matrix(1,0,0,1,1385,725) translate(75.6123046875 104.396484375)"/><use xlink:href="#C" transform="matrix(1,0,0,1,1385,725) translate(0 122.396484375)"/><use xlink:href="#Y" transform="matrix(1,0,0,1,1385,725) translate(75.6123046875 122.396484375)"/></g><path d="M1380.15 723.62l-1.32-2.76m-1.76-3.67l-2.64-5.52m-1.76-3.67l-2.64-5.5m-1.76-3.67l-2.64-5.5m-1.76-3.67l-1.32-2.76" stroke="#fcc438" stroke-width="2" fill="none"/><path d="M1381.17 723.43l-.06.07-1.1 2.13-.76-1.6 1.8-.87zM1363.46 686.5l-1.8.86-.65-1.36h2.22z" fill="#fcc438"/><path d="M60 1010c0-5.52 4.48-10 10-10h200c5.52 0 10 4.48 10 10v80c0 5.52-4.48 10-10 10H70c-5.52 0-10-4.48-10-10z" stroke="#0c7cba" stroke-width="2" fill="#fff"/><g><use xlink:href="#N" transform="matrix(1,0,0,1,65,1005) translate(0 14.396484375)"/><use xlink:href="#Z" transform="matrix(1,0,0,1,65,1005) translate(75.6123046875 14.396484375)"/><use xlink:href="#L" transform="matrix(1,0,0,1,65,1005) translate(0 32.396484375)"/><use xlink:href="#aa" transform="matrix(1,0,0,1,65,1005) translate(75.6123046875 32.396484375)"/><use xlink:href="#L" transform="matrix(1,0,0,1,65,1005) translate(0 50.396484375)"/><use xlink:href="#ab" transform="matrix(1,0,0,1,65,1005) translate(75.6123046875 50.396484375)"/><use xlink:href="#ac" transform="matrix(1,0,0,1,65,1005) translate(0 68.396484375)"/><use xlink:href="#L" transform="matrix(1,0,0,1,65,1005) translate(0 86.396484375)"/><use xlink:href="#ad" transform="matrix(1,0,0,1,65,1005) translate(75.6123046875 86.396484375)"/></g><path d="M281.9 1049.58l2.7-1.25m3.62-1.67l5.4-2.5m3.6-1.66l5.4-2.5m3.62-1.67l5.4-2.5m3.6-1.66l5.42-2.5m3.6-1.67l5.4-2.5m3.6-1.67l5.42-2.5m3.6-1.66l5.4-2.5m3.6-1.67l5.42-2.5m3.6-1.67l5.4-2.5m3.6-1.66l5.42-2.5m3.6-1.67l5.4-2.5m3.62-1.67l5.4-2.5m3.6-1.66l5.4-2.5m3.62-1.67l5.4-2.5m3.6-1.66l5.42-2.5m3.6-1.67l2.7-1.25" stroke="#0c7cba" stroke-width="2" fill="none"/><path d="M282.35 1050.48l-1.35.62v-2.2l.5-.24zM427 982.5l.13 1.04-.65.3-.84-1.82 1.5-.7z" fill="#0c7cba"/><path d="M1378 977.92l-2.97-.5m-3.97-.67l-5.97-1m-3.98-.68l-5.97-1m-3.97-.67l-5.97-1m-3.96-.68l-5.97-1m-3.97-.67l-5.96-1m-3.98-.68l-5.96-1m-3.98-.67l-5.96-1m-3.98-.68l-5.96-1m-3.98-.67l-5.96-1m-3.98-.68l-5.96-1m-3.98-.68l-5.96-1m-3.98-.68l-5.96-1m-3.98-.68l-5.96-1m-3.97-.67l-5.97-1m-3.97-.68l-5.96-1m-3.97-.68l-5.97-1m-3.97-.68l-5.97-1m-3.97-.68l-5.98-1m-3.97-.67l-2.98-.5" stroke="#19967d" stroke-width="2" fill="none"/><path d="M1379 977.08v2.02l-1.18-.2.33-1.97zM1189.03 947.08l-3.97-.67.07-.4h2.44l1.67-.22z" fill="#19967d"/><path d="M1380 970c0-5.52 4.48-10 10-10h200c5.52 0 10 4.48 10 10v40c0 5.52-4.48 10-10 10h-200c-5.52 0-10-4.48-10-10z" stroke="#19967d" stroke-width="2" fill="#fff"/><g><use xlink:href="#C" transform="matrix(1,0,0,1,1385,965) translate(0 14.396484375)"/><use xlink:href="#ae" transform="matrix(1,0,0,1,1385,965) translate(75.6123046875 14.396484375)"/><use xlink:href="#C" transform="matrix(1,0,0,1,1385,965) translate(0 32.396484375)"/><use xlink:href="#af" transform="matrix(1,0,0,1,1385,965) translate(75.6123046875 32.396484375)"/></g><defs><path d="M185-189c-5-48-123-54-124 2 14 75 158 14 163 119 3 78-121 87-175 55-17-10-28-26-33-46l33-7c5 56 141 63 141-1 0-78-155-14-162-118-5-82 145-84 179-34 5 7 8 16 11 25" id="ag"/><path d="M100-194c63 0 86 42 84 106H49c0 40 14 67 53 68 26 1 43-12 49-29l28 8c-11 28-37 45-77 45C44 4 14-33 15-96c1-61 26-98 85-98zm52 81c6-60-76-77-97-28-3 7-6 17-6 28h103" id="ah"/><path d="M117-194c89-4 53 116 60 194h-32v-121c0-31-8-49-39-48C34-167 62-67 57 0H25l-1-190h30c1 10-1 24 2 32 11-22 29-35 61-36" id="ai"/><path d="M135-143c-3-34-86-38-87 0 15 53 115 12 119 90S17 21 10-45l28-5c4 36 97 45 98 0-10-56-113-15-118-90-4-57 82-63 122-42 12 7 21 19 24 35" id="aj"/><path d="M100-194c62-1 85 37 85 99 1 63-27 99-86 99S16-35 15-95c0-66 28-99 85-99zM99-20c44 1 53-31 53-75 0-43-8-75-51-75s-53 32-53 75 10 74 51 75" id="ak"/><path d="M114-163C36-179 61-72 57 0H25l-1-190h30c1 12-1 29 2 39 6-27 23-49 58-41v29" id="al"/><path d="M30-248c118-7 216 8 213 122C240-48 200 0 122 0H30v-248zM63-27c89 8 146-16 146-99s-60-101-146-95v194" id="am"/><path d="M141-36C126-15 110 5 73 4 37 3 15-17 15-53c-1-64 63-63 125-63 3-35-9-54-41-54-24 1-41 7-42 31l-33-3c5-37 33-52 76-52 45 0 72 20 72 64v82c-1 20 7 32 28 27v20c-31 9-61-2-59-35zM48-53c0 20 12 33 32 33 41-3 63-29 60-74-43 2-92-5-92 41" id="an"/><path d="M59-47c-2 24 18 29 38 22v24C64 9 27 4 27-40v-127H5v-23h24l9-43h21v43h35v23H59v120" id="ao"/><path d="M33 0v-38h34V0H33" id="ap"/><path d="M210-169c-67 3-38 105-44 169h-31v-121c0-29-5-50-35-48C34-165 62-65 56 0H25l-1-190h30c1 10-1 24 2 32 10-44 99-50 107 0 11-21 27-35 58-36 85-2 47 119 55 194h-31v-121c0-29-5-49-35-48" id="aq"/><path d="M177-190C167-65 218 103 67 71c-23-6-38-20-44-43l32-5c15 47 100 32 89-28v-30C133-14 115 1 83 1 29 1 15-40 15-95c0-56 16-97 71-98 29-1 48 16 59 35 1-10 0-23 2-32h30zM94-22c36 0 50-32 50-73 0-42-14-75-50-75-39 0-46 34-46 75s6 73 46 73" id="ar"/><g id="a"><use transform="matrix(0.05,0,0,0.05,0,0)" xlink:href="#ag"/><use transform="matrix(0.05,0,0,0.05,12,0)" xlink:href="#ah"/><use transform="matrix(0.05,0,0,0.05,22,0)" xlink:href="#ai"/><use transform="matrix(0.05,0,0,0.05,32,0)" xlink:href="#aj"/><use transform="matrix(0.05,0,0,0.05,41,0)" xlink:href="#ak"/><use transform="matrix(0.05,0,0,0.05,51,0)" xlink:href="#al"/><use transform="matrix(0.05,0,0,0.05,56.95,0)" xlink:href="#am"/><use transform="matrix(0.05,0,0,0.05,69.9,0)" xlink:href="#an"/><use transform="matrix(0.05,0,0,0.05,79.9,0)" xlink:href="#ao"/><use transform="matrix(0.05,0,0,0.05,84.9,0)" xlink:href="#an"/><use transform="matrix(0.05,0,0,0.05,94.9,0)" xlink:href="#ap"/><use transform="matrix(0.05,0,0,0.05,99.9,0)" xlink:href="#aq"/><use transform="matrix(0.05,0,0,0.05,114.85000000000001,0)" xlink:href="#aj"/><use transform="matrix(0.05,0,0,0.05,123.85000000000001,0)" xlink:href="#ar"/></g><path d="M24-231v-30h32v30H24zM24 0v-190h32V0H24" id="as"/><path d="M101-251c82-7 93 87 43 132L82-64C71-53 59-42 53-27h129V0H18c2-99 128-94 128-182 0-28-16-43-45-43s-46 15-49 41l-32-3c6-41 34-60 81-64" id="at"/><path d="M96-169c-40 0-48 33-48 73s9 75 48 75c24 0 41-14 43-38l32 2c-6 37-31 61-74 61-59 0-76-41-82-99-10-93 101-131 147-64 4 7 5 14 7 22l-32 3c-4-21-16-35-41-35" id="au"/><g id="b"><use transform="matrix(0.05,0,0,0.05,0,0)" xlink:href="#as"/><use transform="matrix(0.05,0,0,0.05,3.95,0)" xlink:href="#at"/><use transform="matrix(0.05,0,0,0.05,13.949999999999998,0)" xlink:href="#au"/></g><path d="M108 0H70L1-190h34L89-25l56-165h34" id="av"/><g id="c"><use transform="matrix(0.05,0,0,0.05,0,0)" xlink:href="#aj"/><use transform="matrix(0.05,0,0,0.05,9,0)" xlink:href="#ah"/><use transform="matrix(0.05,0,0,0.05,19,0)" xlink:href="#al"/><use transform="matrix(0.05,0,0,0.05,24.95,0)" xlink:href="#av"/><use transform="matrix(0.05,0,0,0.05,33.95,0)" xlink:href="#ah"/><use transform="matrix(0.05,0,0,0.05,43.95,0)" xlink:href="#al"/></g><path d="M16-82v-28h88v28H16" id="aw"/><path d="M24 0v-261h32V0H24" id="ax"/><path d="M143 0L79-87 56-68V0H24v-261h32v163l83-92h37l-77 82L181 0h-38" id="ay"/><g id="d"><use transform="matrix(0.05,0,0,0.05,0,0)" xlink:href="#ah"/><use transform="matrix(0.05,0,0,0.05,10,0)" xlink:href="#ar"/><use transform="matrix(0.05,0,0,0.05,20,0)" xlink:href="#ak"/><use transform="matrix(0.05,0,0,0.05,30,0)" xlink:href="#aw"/><use transform="matrix(0.05,0,0,0.05,35.95,0)" xlink:href="#ax"/><use transform="matrix(0.05,0,0,0.05,39.900000000000006,0)" xlink:href="#as"/><use transform="matrix(0.05,0,0,0.05,43.85000000000001,0)" xlink:href="#ay"/><use transform="matrix(0.05,0,0,0.05,52.85,0)" xlink:href="#ah"/></g><path d="M205 0l-28-72H64L36 0H1l101-248h38L239 0h-34zm-38-99l-47-123c-12 45-31 82-46 123h93" id="az"/><use transform="matrix(0.05,0,0,0.05,0,0)" xlink:href="#az" id="e"/><path d="M33-154v-36h34v36H33zM33 0v-36h34V0H33" id="aA"/><use transform="matrix(0.05,0,0,0.05,0,0)" xlink:href="#aA" id="f"/><path d="M115-194c55 1 70 41 70 98S169 2 115 4C84 4 66-9 55-30l1 105H24l-1-265h31l2 30c10-21 28-34 59-34zm-8 174c40 0 45-34 45-75s-6-73-45-74c-42 0-51 32-51 76 0 43 10 73 51 73" id="aB"/><path d="M85-194c31 0 48 13 60 33l-1-100h32l1 261h-30c-2-10 0-23-3-31C134-8 116 4 85 4 32 4 16-35 15-94c0-66 23-100 70-100zm9 24c-40 0-46 34-46 75 0 40 6 74 45 74 42 0 51-32 51-76 0-42-9-74-50-73" id="aC"/><g id="g"><use transform="matrix(0.05,0,0,0.05,0,0)" xlink:href="#au"/><use transform="matrix(0.05,0,0,0.05,9,0)" xlink:href="#ak"/><use transform="matrix(0.05,0,0,0.05,19,0)" xlink:href="#ai"/><use transform="matrix(0.05,0,0,0.05,29,0)" xlink:href="#au"/><use transform="matrix(0.05,0,0,0.05,38,0)" xlink:href="#ah"/><use transform="matrix(0.05,0,0,0.05,48,0)" xlink:href="#aB"/><use transform="matrix(0.05,0,0,0.05,58,0)" xlink:href="#ao"/><use transform="matrix(0.05,0,0,0.05,63,0)" xlink:href="#at"/><use transform="matrix(0.05,0,0,0.05,73,0)" xlink:href="#au"/><use transform="matrix(0.05,0,0,0.05,82,0)" xlink:href="#ak"/><use transform="matrix(0.05,0,0,0.05,92,0)" xlink:href="#aq"/><use transform="matrix(0.05,0,0,0.05,106.95,0)" xlink:href="#aq"/><use transform="matrix(0.05,0,0,0.05,121.9,0)" xlink:href="#an"/><use transform="matrix(0.05,0,0,0.05,131.9,0)" xlink:href="#ai"/><use transform="matrix(0.05,0,0,0.05,141.9,0)" xlink:href="#aC"/><use transform="matrix(0.05,0,0,0.05,151.9,0)" xlink:href="#aj"/></g><path d="M68-36c1 33-1 63-14 82H32c9-13 17-26 17-46H33v-36h35zM33-154v-36h35v36H33" id="aD"/><g id="h"><use transform="matrix(0.05,0,0,0.05,0,0)" xlink:href="#au"/><use transform="matrix(0.05,0,0,0.05,9,0)" xlink:href="#ax"/><use transform="matrix(0.05,0,0,0.05,12.949999999999998,0)" xlink:href="#as"/><use transform="matrix(0.05,0,0,0.05,16.9,0)" xlink:href="#ah"/><use transform="matrix(0.05,0,0,0.05,26.899999999999995,0)" xlink:href="#ai"/><use transform="matrix(0.05,0,0,0.05,36.9,0)" xlink:href="#ao"/><use transform="matrix(0.05,0,0,0.05,41.9,0)" xlink:href="#aD"/></g><g id="i"><use transform="matrix(0.05,0,0,0.05,0,0)" xlink:href="#aC"/><use transform="matrix(0.05,0,0,0.05,10,0)" xlink:href="#an"/><use transform="matrix(0.05,0,0,0.05,20,0)" xlink:href="#ao"/><use transform="matrix(0.05,0,0,0.05,25,0)" xlink:href="#an"/><use transform="matrix(0.05,0,0,0.05,35,0)" xlink:href="#at"/><use transform="matrix(0.05,0,0,0.05,45,0)" xlink:href="#au"/><use transform="matrix(0.05,0,0,0.05,54,0)" xlink:href="#ak"/><use transform="matrix(0.05,0,0,0.05,64,0)" xlink:href="#ai"/><use transform="matrix(0.05,0,0,0.05,74,0)" xlink:href="#au"/><use transform="matrix(0.05,0,0,0.05,83,0)" xlink:href="#ah"/><use transform="matrix(0.05,0,0,0.05,93,0)" xlink:href="#aB"/><use transform="matrix(0.05,0,0,0.05,103,0)" xlink:href="#ao"/></g><path d="M84 4C-5 8 30-112 23-190h32v120c0 31 7 50 39 49 72-2 45-101 50-169h31l1 190h-30c-1-10 1-25-2-33-11 22-28 36-60 37" id="aE"/><path d="M115-194c53 0 69 39 70 98 0 66-23 100-70 100C84 3 66-7 56-30L54 0H23l1-261h32v101c10-23 28-34 59-34zm-8 174c40 0 45-34 45-75 0-40-5-75-45-74-42 0-51 32-51 76 0 43 10 73 51 73" id="aF"/><g id="j"><use transform="matrix(0.05,0,0,0.05,0,0)" xlink:href="#aj"/><use transform="matrix(0.05,0,0,0.05,9,0)" xlink:href="#aE"/><use transform="matrix(0.05,0,0,0.05,19,0)" xlink:href="#aF"/><use transform="matrix(0.05,0,0,0.05,29,0)" xlink:href="#aj"/><use transform="matrix(0.05,0,0,0.05,38,0)" xlink:href="#au"/><use transform="matrix(0.05,0,0,0.05,47,0)" xlink:href="#al"/><use transform="matrix(0.05,0,0,0.05,52.95,0)" xlink:href="#as"/><use transform="matrix(0.05,0,0,0.05,56.900000000000006,0)" xlink:href="#aF"/><use transform="matrix(0.05,0,0,0.05,66.9,0)" xlink:href="#ah"/><use transform="matrix(0.05,0,0,0.05,76.9,0)" xlink:href="#al"/></g><g id="k"><use transform="matrix(0.05,0,0,0.05,0,0)" xlink:href="#au"/><use transform="matrix(0.05,0,0,0.05,9,0)" xlink:href="#ak"/><use transform="matrix(0.05,0,0,0.05,19,0)" xlink:href="#ai"/><use transform="matrix(0.05,0,0,0.05,29,0)" xlink:href="#au"/><use transform="matrix(0.05,0,0,0.05,38,0)" xlink:href="#ah"/><use transform="matrix(0.05,0,0,0.05,48,0)" xlink:href="#aB"/><use transform="matrix(0.05,0,0,0.05,58,0)" xlink:href="#ao"/><use transform="matrix(0.05,0,0,0.05,63,0)" xlink:href="#at"/><use transform="matrix(0.05,0,0,0.05,73,0)" xlink:href="#au"/><use transform="matrix(0.05,0,0,0.05,82,0)" xlink:href="#ak"/><use transform="matrix(0.05,0,0,0.05,92,0)" xlink:href="#aq"/><use transform="matrix(0.05,0,0,0.05,106.95,0)" xlink:href="#aq"/><use transform="matrix(0.05,0,0,0.05,121.9,0)" xlink:href="#an"/><use transform="matrix(0.05,0,0,0.05,131.9,0)" xlink:href="#ai"/><use transform="matrix(0.05,0,0,0.05,141.9,0)" xlink:href="#aC"/><use transform="matrix(0.05,0,0,0.05,151.9,0)" xlink:href="#aj"/></g><g id="l"><use transform="matrix(0.05,0,0,0.05,0,0)" xlink:href="#as"/><use transform="matrix(0.05,0,0,0.05,3.95,0)" xlink:href="#ai"/><use transform="matrix(0.05,0,0,0.05,13.949999999999998,0)" xlink:href="#ao"/><use transform="matrix(0.05,0,0,0.05,18.95,0)" xlink:href="#ah"/><use transform="matrix(0.05,0,0,0.05,28.950000000000003,0)" xlink:href="#al"/><use transform="matrix(0.05,0,0,0.05,34.9,0)" xlink:href="#aB"/><use transform="matrix(0.05,0,0,0.05,44.9,0)" xlink:href="#al"/><use transform="matrix(0.05,0,0,0.05,50.85,0)" xlink:href="#ah"/><use transform="matrix(0.05,0,0,0.05,60.85,0)" xlink:href="#ao"/><use transform="matrix(0.05,0,0,0.05,65.85,0)" xlink:href="#ah"/><use transform="matrix(0.05,0,0,0.05,75.85,0)" xlink:href="#al"/></g><path d="M106-169C34-169 62-67 57 0H25v-261h32l-1 103c12-21 28-36 61-36 89 0 53 116 60 194h-32v-121c2-32-8-49-39-48" id="aG"/><path d="M206 0h-36l-40-164L89 0H53L-1-190h32L70-26l43-164h34l41 164 42-164h31" id="aH"/><g id="m"><use transform="matrix(0.05,0,0,0.05,0,0)" xlink:href="#aG"/><use transform="matrix(0.05,0,0,0.05,10,0)" xlink:href="#an"/><use transform="matrix(0.05,0,0,0.05,20,0)" xlink:href="#al"/><use transform="matrix(0.05,0,0,0.05,25.950000000000003,0)" xlink:href="#aC"/><use transform="matrix(0.05,0,0,0.05,35.95,0)" xlink:href="#aH"/><use transform="matrix(0.05,0,0,0.05,48.900000000000006,0)" xlink:href="#an"/><use transform="matrix(0.05,0,0,0.05,58.900000000000006,0)" xlink:href="#al"/><use transform="matrix(0.05,0,0,0.05,64.85000000000001,0)" xlink:href="#ah"/></g><g id="n"><use transform="matrix(0.05,0,0,0.05,0,0)" xlink:href="#aC"/><use transform="matrix(0.05,0,0,0.05,10,0)" xlink:href="#ah"/><use transform="matrix(0.05,0,0,0.05,20,0)" xlink:href="#av"/><use transform="matrix(0.05,0,0,0.05,29,0)" xlink:href="#as"/><use transform="matrix(0.05,0,0,0.05,32.95,0)" xlink:href="#au"/><use transform="matrix(0.05,0,0,0.05,41.95,0)" xlink:href="#ah"/></g><g id="o"><use transform="matrix(0.05,0,0,0.05,0,0)" xlink:href="#as"/><use transform="matrix(0.05,0,0,0.05,3.95,0)" xlink:href="#at"/><use transform="matrix(0.05,0,0,0.05,13.949999999999998,0)" xlink:href="#au"/></g><g id="p"><use transform="matrix(0.05,0,0,0.05,0,0)" xlink:href="#au"/><use transform="matrix(0.05,0,0,0.05,9,0)" xlink:href="#ax"/><use transform="matrix(0.05,0,0,0.05,12.949999999999998,0)" xlink:href="#as"/><use transform="matrix(0.05,0,0,0.05,16.9,0)" xlink:href="#ah"/><use transform="matrix(0.05,0,0,0.05,26.899999999999995,0)" xlink:href="#ai"/><use transform="matrix(0.05,0,0,0.05,36.9,0)" xlink:href="#ao"/></g><path d="M212-179c-10-28-35-45-73-45-59 0-87 40-87 99 0 60 29 101 89 101 43 0 62-24 78-52l27 14C228-24 195 4 139 4 59 4 22-46 18-125c-6-104 99-153 187-111 19 9 31 26 39 46" id="aI"/><use transform="matrix(0.05,0,0,0.05,0,0)" xlink:href="#aI" id="q"/><path d="M160-131c35 5 61 23 61 61C221 17 115-2 30 0v-248c76 3 177-17 177 60 0 33-19 50-47 57zm-97-11c50-1 110 9 110-42 0-47-63-36-110-37v79zm0 115c55-2 124 14 124-45 0-56-70-42-124-44v89" id="aJ"/><use transform="matrix(0.05,0,0,0.05,0,0)" xlink:href="#aJ" id="r"/><path d="M30-248c87 1 191-15 191 75 0 78-77 80-158 76V0H30v-248zm33 125c57 0 124 11 124-50 0-59-68-47-124-48v98" id="aK"/><g id="s"><use transform="matrix(0.05,0,0,0.05,0,0)" xlink:href="#aK"/><use transform="matrix(0.05,0,0,0.05,12,0)" xlink:href="#ah"/><use transform="matrix(0.05,0,0,0.05,22,0)" xlink:href="#al"/><use transform="matrix(0.05,0,0,0.05,27.950000000000003,0)" xlink:href="#au"/><use transform="matrix(0.05,0,0,0.05,36.95,0)" xlink:href="#ah"/><use transform="matrix(0.05,0,0,0.05,46.95,0)" xlink:href="#aB"/><use transform="matrix(0.05,0,0,0.05,56.95,0)" xlink:href="#ao"/><use transform="matrix(0.05,0,0,0.05,61.95,0)" xlink:href="#as"/><use transform="matrix(0.05,0,0,0.05,65.9,0)" xlink:href="#ak"/><use transform="matrix(0.05,0,0,0.05,75.9,0)" xlink:href="#ai"/><use transform="matrix(0.05,0,0,0.05,85.9,0)" xlink:href="#aI"/><use transform="matrix(0.05,0,0,0.05,98.85000000000001,0)" xlink:href="#ak"/><use transform="matrix(0.05,0,0,0.05,108.85000000000001,0)" xlink:href="#ai"/><use transform="matrix(0.05,0,0,0.05,118.85000000000001,0)" xlink:href="#au"/><use transform="matrix(0.05,0,0,0.05,127.85000000000001,0)" xlink:href="#ah"/><use transform="matrix(0.05,0,0,0.05,137.85000000000002,0)" xlink:href="#aB"/><use transform="matrix(0.05,0,0,0.05,147.85000000000002,0)" xlink:href="#ao"/><use transform="matrix(0.05,0,0,0.05,152.85000000000002,0)" xlink:href="#ap"/><use transform="matrix(0.05,0,0,0.05,157.85000000000002,0)" xlink:href="#aq"/><use transform="matrix(0.05,0,0,0.05,172.8,0)" xlink:href="#aj"/><use transform="matrix(0.05,0,0,0.05,181.8,0)" xlink:href="#ar"/></g><g id="t"><use transform="matrix(0.05,0,0,0.05,0,0)" xlink:href="#aC"/><use transform="matrix(0.05,0,0,0.05,10,0)" xlink:href="#an"/><use transform="matrix(0.05,0,0,0.05,20,0)" xlink:href="#ao"/><use transform="matrix(0.05,0,0,0.05,25,0)" xlink:href="#an"/><use transform="matrix(0.05,0,0,0.05,35,0)" xlink:href="#at"/><use transform="matrix(0.05,0,0,0.05,45,0)" xlink:href="#au"/><use transform="matrix(0.05,0,0,0.05,54,0)" xlink:href="#ak"/><use transform="matrix(0.05,0,0,0.05,64,0)" xlink:href="#ai"/><use transform="matrix(0.05,0,0,0.05,74,0)" xlink:href="#au"/><use transform="matrix(0.05,0,0,0.05,83,0)" xlink:href="#ah"/><use transform="matrix(0.05,0,0,0.05,93,0)" xlink:href="#aB"/><use transform="matrix(0.05,0,0,0.05,103,0)" xlink:href="#ao"/></g><g id="u"><use transform="matrix(0.05,0,0,0.05,0,0)" xlink:href="#aB"/><use transform="matrix(0.05,0,0,0.05,10,0)" xlink:href="#aE"/><use transform="matrix(0.05,0,0,0.05,20,0)" xlink:href="#aF"/><use transform="matrix(0.05,0,0,0.05,30,0)" xlink:href="#ax"/><use transform="matrix(0.05,0,0,0.05,33.95,0)" xlink:href="#as"/><use transform="matrix(0.05,0,0,0.05,37.900000000000006,0)" xlink:href="#aj"/><use transform="matrix(0.05,0,0,0.05,46.900000000000006,0)" xlink:href="#aG"/><use transform="matrix(0.05,0,0,0.05,56.900000000000006,0)" xlink:href="#ah"/><use transform="matrix(0.05,0,0,0.05,66.9,0)" xlink:href="#al"/></g><use transform="matrix(0.05,0,0,0.05,0,0)" xlink:href="#aA" id="v"/><use transform="matrix(0.05,0,0,0.05,0,0)" xlink:href="#am" id="w"/><path d="M33 0v-248h34V0H33" id="aL"/><g id="x"><use transform="matrix(0.05,0,0,0.05,0,0)" xlink:href="#aL"/><use transform="matrix(0.05,0,0,0.05,5,0)" xlink:href="#at"/><use transform="matrix(0.05,0,0,0.05,15,0)" xlink:href="#au"/><use transform="matrix(0.05,0,0,0.05,24,0)" xlink:href="#ap"/><use transform="matrix(0.05,0,0,0.05,29,0)" xlink:href="#aj"/><use transform="matrix(0.05,0,0,0.05,38,0)" xlink:href="#al"/><use transform="matrix(0.05,0,0,0.05,43.95,0)" xlink:href="#av"/></g><path fill="#834187" d="M33 0v-248h34V0H33" id="aM"/><path fill="#834187" d="M101-251c82-7 93 87 43 132L82-64C71-53 59-42 53-27h129V0H18c2-99 128-94 128-182 0-28-16-43-45-43s-46 15-49 41l-32-3c6-41 34-60 81-64" id="aN"/><path fill="#834187" d="M96-169c-40 0-48 33-48 73s9 75 48 75c24 0 41-14 43-38l32 2c-6 37-31 61-74 61-59 0-76-41-82-99-10-93 101-131 147-64 4 7 5 14 7 22l-32 3c-4-21-16-35-41-35" id="aO"/><g id="y"><use transform="matrix(0.05,0,0,0.05,0,0)" xlink:href="#aM"/><use transform="matrix(0.05,0,0,0.05,5,0)" xlink:href="#aN"/><use transform="matrix(0.05,0,0,0.05,15,0)" xlink:href="#aO"/></g><path fill="#834187" d="M24-231v-30h32v30H24zM24 0v-190h32V0H24" id="aP"/><path fill="#834187" d="M117-194c89-4 53 116 60 194h-32v-121c0-31-8-49-39-48C34-167 62-67 57 0H25l-1-190h30c1 10-1 24 2 32 11-22 29-35 61-36" id="aQ"/><path fill="#834187" d="M59-47c-2 24 18 29 38 22v24C64 9 27 4 27-40v-127H5v-23h24l9-43h21v43h35v23H59v120" id="aR"/><path fill="#834187" d="M100-194c63 0 86 42 84 106H49c0 40 14 67 53 68 26 1 43-12 49-29l28 8c-11 28-37 45-77 45C44 4 14-33 15-96c1-61 26-98 85-98zm52 81c6-60-76-77-97-28-3 7-6 17-6 28h103" id="aS"/><path fill="#834187" d="M114-163C36-179 61-72 57 0H25l-1-190h30c1 12-1 29 2 39 6-27 23-49 58-41v29" id="aT"/><path fill="#834187" d="M101-234c-31-9-42 10-38 44h38v23H63V0H32v-167H5v-23h27c-7-52 17-82 69-68v24" id="aU"/><path fill="#834187" d="M141-36C126-15 110 5 73 4 37 3 15-17 15-53c-1-64 63-63 125-63 3-35-9-54-41-54-24 1-41 7-42 31l-33-3c5-37 33-52 76-52 45 0 72 20 72 64v82c-1 20 7 32 28 27v20c-31 9-61-2-59-35zM48-53c0 20 12 33 32 33 41-3 63-29 60-74-43 2-92-5-92 41" id="aV"/><g id="z"><use transform="matrix(0.05,0,0,0.05,0,0)" xlink:href="#aP"/><use transform="matrix(0.05,0,0,0.05,3.95,0)" xlink:href="#aQ"/><use transform="matrix(0.05,0,0,0.05,13.949999999999998,0)" xlink:href="#aR"/><use transform="matrix(0.05,0,0,0.05,18.95,0)" xlink:href="#aS"/><use transform="matrix(0.05,0,0,0.05,28.950000000000003,0)" xlink:href="#aT"/><use transform="matrix(0.05,0,0,0.05,34.9,0)" xlink:href="#aU"/><use transform="matrix(0.05,0,0,0.05,39.9,0)" xlink:href="#aV"/><use transform="matrix(0.05,0,0,0.05,49.9,0)" xlink:href="#aO"/><use transform="matrix(0.05,0,0,0.05,58.900000000000006,0)" xlink:href="#aS"/></g><g id="A"><use transform="matrix(0.05,0,0,0.05,0,0)" xlink:href="#am"/><use transform="matrix(0.05,0,0,0.05,12.950000000000001,0)" xlink:href="#ah"/><use transform="matrix(0.05,0,0,0.05,22.950000000000003,0)" xlink:href="#av"/><use transform="matrix(0.05,0,0,0.05,31.950000000000003,0)" xlink:href="#as"/><use transform="matrix(0.05,0,0,0.05,35.900000000000006,0)" xlink:href="#au"/><use transform="matrix(0.05,0,0,0.05,44.900000000000006,0)" xlink:href="#ah"/><use transform="matrix(0.05,0,0,0.05,54.900000000000006,0)" xlink:href="#aI"/><use transform="matrix(0.05,0,0,0.05,67.85000000000001,0)" xlink:href="#aq"/><use transform="matrix(0.05,0,0,0.05,82.80000000000001,0)" xlink:href="#aC"/><use transform="matrix(0.05,0,0,0.05,92.80000000000001,0)" xlink:href="#ap"/><use transform="matrix(0.05,0,0,0.05,97.80000000000001,0)" xlink:href="#aq"/><use transform="matrix(0.05,0,0,0.05,112.75,0)" xlink:href="#aj"/><use transform="matrix(0.05,0,0,0.05,121.75,0)" xlink:href="#ar"/></g><g id="B"><use transform="matrix(0.05,0,0,0.05,0,0)" xlink:href="#aI"/><use transform="matrix(0.05,0,0,0.05,12.950000000000001,0)" xlink:href="#ak"/><use transform="matrix(0.05,0,0,0.05,22.950000000000003,0)" xlink:href="#aq"/><use transform="matrix(0.05,0,0,0.05,37.900000000000006,0)" xlink:href="#aq"/><use transform="matrix(0.05,0,0,0.05,52.85,0)" xlink:href="#an"/><use transform="matrix(0.05,0,0,0.05,62.85,0)" xlink:href="#ai"/><use transform="matrix(0.05,0,0,0.05,72.85000000000001,0)" xlink:href="#aC"/><use transform="matrix(0.05,0,0,0.05,82.85000000000001,0)" xlink:href="#aI"/><use transform="matrix(0.05,0,0,0.05,95.80000000000001,0)" xlink:href="#ak"/><use transform="matrix(0.05,0,0,0.05,105.80000000000001,0)" xlink:href="#ai"/><use transform="matrix(0.05,0,0,0.05,115.80000000000001,0)" xlink:href="#au"/><use transform="matrix(0.05,0,0,0.05,124.80000000000001,0)" xlink:href="#ah"/><use transform="matrix(0.05,0,0,0.05,134.8,0)" xlink:href="#aB"/><use transform="matrix(0.05,0,0,0.05,144.8,0)" xlink:href="#ao"/><use transform="matrix(0.05,0,0,0.05,149.8,0)" xlink:href="#ap"/><use transform="matrix(0.05,0,0,0.05,154.8,0)" xlink:href="#aj"/><use transform="matrix(0.05,0,0,0.05,163.8,0)" xlink:href="#al"/><use transform="matrix(0.05,0,0,0.05,169.75,0)" xlink:href="#av"/></g><path fill="#5e5e5e" d="M873-819c-18-114-119-146-250-146-163 0-245 50-245 151 0 151 170 148 294 185 182 54 388 94 388 320 0 240-189 325-439 329-245 4-410-69-454-268l159-31c24 133 136 168 295 165 144-2 270-31 270-171 0-164-195-160-331-202-167-52-350-87-350-299 0-218 173-315 413-313 220 2 373 77 412 260" id="aW"/><path fill="#5e5e5e" d="M682 16c-209 0-323-80-324-285v-671H190v-142h170l58-282h120v282h432v142H538v652c2 114 60 155 182 155 106 0 209-16 297-34v137C921-4 806 16 682 16" id="aX"/><path fill="#5e5e5e" d="M839-1102c70 0 148 7 206 17v167c-112-18-268-36-363 15-129 69-208 203-208 395V0H294c-10-367 32-789-52-1082h171c21 75 41 161 48 250h5c67-152 152-270 373-270" id="aY"/><path fill="#5e5e5e" d="M745-142h380V0H143v-142h422v-798H246v-142h499v940zM545-1292v-192h200v192H545" id="aZ"/><path fill="#5e5e5e" d="M706-1102c241 0 344 136 343 381V0H868v-695c1-168-57-273-220-268-190 6-283 138-283 336V0H185c-3-360 6-732-6-1082h170c4 54 7 126 8 185h3c63-121 164-204 346-205" id="ba"/><path fill="#5e5e5e" d="M1048-32c-2 300-135 456-433 456-222-1-358-88-400-267l184-25c22 99 100 157 222 156 184-2 248-125 248-315 0-64 3-133-2-194C807-100 706-13 524-12c-306 0-381-228-381-537 0-318 85-550 400-550 164 0 271 83 325 202h3c1-60 3-134 12-185h171c-13 339-4 702-6 1050zM585-145c210-8 284-178 284-406 0-192-52-331-177-392-33-16-69-22-104-22-223 2-259 184-259 414 0 229 31 415 256 406" id="bb"/><g id="C"><use transform="matrix(0.0087890625,0,0,0.0087890625,0,0)" xlink:href="#aW"/><use transform="matrix(0.0087890625,0,0,0.0087890625,10.8017578125,0)" xlink:href="#aX"/><use transform="matrix(0.0087890625,0,0,0.0087890625,21.603515625,0)" xlink:href="#aY"/><use transform="matrix(0.0087890625,0,0,0.0087890625,32.4052734375,0)" xlink:href="#aZ"/><use transform="matrix(0.0087890625,0,0,0.0087890625,43.20703125,0)" xlink:href="#ba"/><use transform="matrix(0.0087890625,0,0,0.0087890625,54.0087890625,0)" xlink:href="#bb"/></g><path fill="#5e5e5e" d="M615-1102c343 0 484 203 482 560-1 347-147 562-488 562-336 0-475-219-479-562-4-349 156-560 485-560zm-8 989c240 0 301-180 301-429 0-245-55-427-290-427-236 0-299 181-299 427 0 243 61 429 288 429" id="bc"/><path fill="#5e5e5e" d="M865-914c-3-187-2-380-2-570h180v1261c0 76 1 155 6 223H877c-8-49-9-116-10-174h-5C801-44 708 26 530 26c-135 0-234-46-297-139s-95-232-95-419c0-377 131-566 392-566 176 0 271 63 335 184zm-286-51c-222 0-255 197-255 427 0 229 31 425 253 425 237 0 286-195 286-441 0-238-52-411-284-411" id="bd"/><path fill="#5e5e5e" d="M617-1102c355 0 481 238 477 599H322c5 222 84 388 301 388 144 0 244-59 284-166l158 45C1002-72 854 20 623 20c-342 0-490-220-490-568 0-346 151-554 484-554zm291 461c-18-192-90-328-289-328-194 0-287 128-295 328h584" id="be"/><path fill="#5e5e5e" d="M-5 220v-96h1238v96H-5" id="bf"/><path fill="#5e5e5e" d="M631 20c-350 0-501-215-501-562 0-355 162-560 502-560 250 0 399 118 446 323l-192 14c-23-124-109-196-262-196-242 0-305 171-305 415 1 245 61 427 304 427 151 0 248-77 267-215l190 12C1039-107 883 20 631 20" id="bg"/><path fill="#5e5e5e" d="M904-1102c199 0 220 177 220 381V0H956v-686c-3-114 0-215-60-264-70-33-125-4-158 71-26 56-39 140-39 252V0H531v-686c-3-114-1-215-61-264-78-41-136 24-157 84-24 69-39 159-39 259V0H105c-3-360 6-732-6-1082h149c6 50 3 123 8 175 36-100 83-195 216-195 135 0 166 79 196 196 42-105 93-196 236-196" id="bh"/><g id="D"><use transform="matrix(0.0087890625,0,0,0.0087890625,0,0)" xlink:href="#ba"/><use transform="matrix(0.0087890625,0,0,0.0087890625,10.8017578125,0)" xlink:href="#bc"/><use transform="matrix(0.0087890625,0,0,0.0087890625,21.603515625,0)" xlink:href="#bd"/><use transform="matrix(0.0087890625,0,0,0.0087890625,32.4052734375,0)" xlink:href="#be"/><use transform="matrix(0.0087890625,0,0,0.0087890625,43.20703125,0)" xlink:href="#bf"/><use transform="matrix(0.0087890625,0,0,0.0087890625,54.0087890625,0)" xlink:href="#bg"/><use transform="matrix(0.0087890625,0,0,0.0087890625,64.810546875,0)" xlink:href="#bh"/><use transform="matrix(0.0087890625,0,0,0.0087890625,75.6123046875,0)" xlink:href="#bd"/></g><path fill="#5e5e5e" d="M528 20c-247 0-343-132-343-381v-721h180v686c-4 177 45 284 224 277 194-8 279-136 279-336v-627h181c3 360-6 732 6 1082H885c-4-54-7-126-8-185h-3C809-64 714 20 528 20" id="bi"/><path fill="#5e5e5e" d="M809-709c168 33 285 134 285 331 0 277-191 398-480 398-287 0-481-120-481-396 0-192 118-296 281-331v-4c-145-39-248-139-248-313 0-238 192-346 444-346 211 0 357 75 422 217 19 41 27 86 27 131 0 172-101 274-250 309v4zm-197-70c168 0 260-73 260-233 0-158-100-224-262-224-160 0-260 68-260 224 0 155 97 232 262 233zm4 664c194 1 291-91 291-280 0-172-115-249-297-249-178 0-291 85-291 253 0 186 106 275 297 276" id="bj"/><g id="E"><use transform="matrix(0.0087890625,0,0,0.0087890625,0,0)" xlink:href="#bi"/><use transform="matrix(0.0087890625,0,0,0.0087890625,10.8017578125,0)" xlink:href="#aZ"/><use transform="matrix(0.0087890625,0,0,0.0087890625,21.603515625,0)" xlink:href="#ba"/><use transform="matrix(0.0087890625,0,0,0.0087890625,32.4052734375,0)" xlink:href="#aX"/><use transform="matrix(0.0087890625,0,0,0.0087890625,43.20703125,0)" xlink:href="#bj"/></g><path fill="#5e5e5e" d="M1000-272c3 95 12 159 101 161 21 0 41-3 59-7V-6c-44 10-86 16-139 16-141 2-191-84-197-217h-6C748-76 648 20 446 20c-207 0-318-120-318-322 0-266 194-348 454-354l236-4c12-191-40-305-222-305-140 0-220 47-232 172l-188-17c33-204 181-292 423-292 255 0 401 118 401 364v466zm-683-27c0 109 63 184 175 182 166-3 259-96 306-217 24-65 20-120 20-200-232 7-501-28-501 235" id="bk"/><g id="F"><use transform="matrix(0.0087890625,0,0,0.0087890625,0,0)" xlink:href="#bk"/><use transform="matrix(0.0087890625,0,0,0.0087890625,10.8017578125,0)" xlink:href="#bd"/><use transform="matrix(0.0087890625,0,0,0.0087890625,21.603515625,0)" xlink:href="#bd"/><use transform="matrix(0.0087890625,0,0,0.0087890625,32.4052734375,0)" xlink:href="#aY"/></g><g id="G"><use transform="matrix(0.0087890625,0,0,0.0087890625,0,0)" xlink:href="#aY"/><use transform="matrix(0.0087890625,0,0,0.0087890625,10.8017578125,0)" xlink:href="#be"/><use transform="matrix(0.0087890625,0,0,0.0087890625,21.603515625,0)" xlink:href="#bb"/></g><path fill="#5e5e5e" d="M715 0H502L69-1082h202c94 253 197 500 285 758 19 57 36 126 52 183 96-335 234-626 350-941h201" id="bl"/><path fill="#5e5e5e" d="M736-142h380V0H134v-142h422v-1200H267v-142h469v1342" id="bm"/><g id="H"><use transform="matrix(0.0087890625,0,0,0.0087890625,0,0)" xlink:href="#aY"/><use transform="matrix(0.0087890625,0,0,0.0087890625,10.8017578125,0)" xlink:href="#be"/><use transform="matrix(0.0087890625,0,0,0.0087890625,21.603515625,0)" xlink:href="#bb"/><use transform="matrix(0.0087890625,0,0,0.0087890625,32.4052734375,0)" xlink:href="#bf"/><use transform="matrix(0.0087890625,0,0,0.0087890625,43.20703125,0)" xlink:href="#bl"/><use transform="matrix(0.0087890625,0,0,0.0087890625,54.0087890625,0)" xlink:href="#bk"/><use transform="matrix(0.0087890625,0,0,0.0087890625,64.810546875,0)" xlink:href="#bm"/><use transform="matrix(0.0087890625,0,0,0.0087890625,75.6123046875,0)" xlink:href="#bi"/><use transform="matrix(0.0087890625,0,0,0.0087890625,86.4140625,0)" xlink:href="#be"/></g><path fill="#5e5e5e" d="M334-464v-160h560v160H334" id="bn"/><g id="I"><use transform="matrix(0.0087890625,0,0,0.0087890625,0,0)" xlink:href="#bn"/><use transform="matrix(0.0087890625,0,0,0.0087890625,10.8017578125,0)" xlink:href="#bn"/><use transform="matrix(0.0087890625,0,0,0.0087890625,21.603515625,0)" xlink:href="#bn"/></g><path fill="#5e5e5e" d="M148-1120c216-7 379-89 463-229h166v1204h353V0H157v-145h439v-1021c-79 124-254 184-448 194v-148" id="bo"/><path fill="#5e5e5e" d="M672-881c271 0 424 163 424 435 0 291-160 466-455 466-367 0-490-287-490-662 0-324 85-568 293-680 129-70 351-59 460 16 73 50 125 123 153 223l-172 31c-31-108-107-172-232-172-259 0-316 252-323 529 59-113 178-186 342-186zm-37 756c186 0 278-124 278-313s-96-304-284-304c-163 0-281 93-281 261 0 157 65 270 168 327 35 19 75 29 119 29" id="bp"/><g id="J"><use transform="matrix(0.0087890625,0,0,0.0087890625,0,0)" xlink:href="#bi"/><use transform="matrix(0.0087890625,0,0,0.0087890625,10.8017578125,0)" xlink:href="#aZ"/><use transform="matrix(0.0087890625,0,0,0.0087890625,21.603515625,0)" xlink:href="#ba"/><use transform="matrix(0.0087890625,0,0,0.0087890625,32.4052734375,0)" xlink:href="#aX"/><use transform="matrix(0.0087890625,0,0,0.0087890625,43.20703125,0)" xlink:href="#bo"/><use transform="matrix(0.0087890625,0,0,0.0087890625,54.0087890625,0)" xlink:href="#bp"/></g><g id="K"><use transform="matrix(0.0087890625,0,0,0.0087890625,0,0)" xlink:href="#aY"/><use transform="matrix(0.0087890625,0,0,0.0087890625,10.8017578125,0)" xlink:href="#be"/><use transform="matrix(0.0087890625,0,0,0.0087890625,21.603515625,0)" xlink:href="#bb"/><use transform="matrix(0.0087890625,0,0,0.0087890625,32.4052734375,0)" xlink:href="#bf"/><use transform="matrix(0.0087890625,0,0,0.0087890625,43.20703125,0)" xlink:href="#bl"/><use transform="matrix(0.0087890625,0,0,0.0087890625,54.0087890625,0)" xlink:href="#bk"/><use transform="matrix(0.0087890625,0,0,0.0087890625,64.810546875,0)" xlink:href="#bm"/><use transform="matrix(0.0087890625,0,0,0.0087890625,75.6123046875,0)" xlink:href="#bi"/><use transform="matrix(0.0087890625,0,0,0.0087890625,86.4140625,0)" xlink:href="#be"/></g><g id="L"><use transform="matrix(0.0087890625,0,0,0.0087890625,0,0)" xlink:href="#aW"/><use transform="matrix(0.0087890625,0,0,0.0087890625,10.8017578125,0)" xlink:href="#aX"/><use transform="matrix(0.0087890625,0,0,0.0087890625,21.603515625,0)" xlink:href="#aY"/><use transform="matrix(0.0087890625,0,0,0.0087890625,32.4052734375,0)" xlink:href="#aZ"/><use transform="matrix(0.0087890625,0,0,0.0087890625,43.20703125,0)" xlink:href="#ba"/><use transform="matrix(0.0087890625,0,0,0.0087890625,54.0087890625,0)" xlink:href="#bb"/></g><g id="M"><use transform="matrix(0.0087890625,0,0,0.0087890625,0,0)" xlink:href="#aX"/><use transform="matrix(0.0087890625,0,0,0.0087890625,10.8017578125,0)" xlink:href="#bk"/><use transform="matrix(0.0087890625,0,0,0.0087890625,21.603515625,0)" xlink:href="#aY"/><use transform="matrix(0.0087890625,0,0,0.0087890625,32.4052734375,0)" xlink:href="#bb"/><use transform="matrix(0.0087890625,0,0,0.0087890625,43.20703125,0)" xlink:href="#be"/><use transform="matrix(0.0087890625,0,0,0.0087890625,54.0087890625,0)" xlink:href="#aX"/></g><path fill="#5e5e5e" d="M1060-1016c0 191-128 285-295 323v4c154 18 262 91 313 209 14 35 21 72 21 110 0 277-194 390-478 390-292 0-457-129-493-382l186-17c24 161 121 250 307 250 172 1 298-80 291-247-8-208-220-239-446-233v-156c217 9 409-34 409-232 0-152-102-225-264-225-159 0-264 88-278 233l-181-14c33-239 196-367 461-367 264 0 447 102 447 354" id="bq"/><path fill="#5e5e5e" d="M611-1370c266 0 451 106 451 368 0 147-77 243-154 327-132 144-316 255-451 395-42 44-75 87-96 134h723V0H144v-117c124-264 387-411 582-603 73-72 151-147 151-271 0-161-104-231-266-231-163 0-249 90-268 238l-184-17c35-233 185-369 452-369" id="br"/><g id="N"><use transform="matrix(0.0087890625,0,0,0.0087890625,0,0)" xlink:href="#bi"/><use transform="matrix(0.0087890625,0,0,0.0087890625,10.8017578125,0)" xlink:href="#aZ"/><use transform="matrix(0.0087890625,0,0,0.0087890625,21.603515625,0)" xlink:href="#ba"/><use transform="matrix(0.0087890625,0,0,0.0087890625,32.4052734375,0)" xlink:href="#aX"/><use transform="matrix(0.0087890625,0,0,0.0087890625,43.20703125,0)" xlink:href="#bq"/><use transform="matrix(0.0087890625,0,0,0.0087890625,54.0087890625,0)" xlink:href="#br"/></g><g id="O"><use transform="matrix(0.0087890625,0,0,0.0087890625,0,0)" xlink:href="#bg"/><use transform="matrix(0.0087890625,0,0,0.0087890625,10.8017578125,0)" xlink:href="#bh"/><use transform="matrix(0.0087890625,0,0,0.0087890625,21.603515625,0)" xlink:href="#bd"/></g><g id="P"><use transform="matrix(0.0087890625,0,0,0.0087890625,0,0)" xlink:href="#bk"/><use transform="matrix(0.0087890625,0,0,0.0087890625,10.8017578125,0)" xlink:href="#aY"/><use transform="matrix(0.0087890625,0,0,0.0087890625,21.603515625,0)" xlink:href="#bb"/></g><g id="Q"><use transform="matrix(0.0087890625,0,0,0.0087890625,0,0)" xlink:href="#bh"/><use transform="matrix(0.0087890625,0,0,0.0087890625,10.8017578125,0)" xlink:href="#be"/><use transform="matrix(0.0087890625,0,0,0.0087890625,21.603515625,0)" xlink:href="#aW"/><use transform="matrix(0.0087890625,0,0,0.0087890625,32.4052734375,0)" xlink:href="#aW"/><use transform="matrix(0.0087890625,0,0,0.0087890625,43.20703125,0)" xlink:href="#bk"/><use transform="matrix(0.0087890625,0,0,0.0087890625,54.0087890625,0)" xlink:href="#bb"/><use transform="matrix(0.0087890625,0,0,0.0087890625,64.810546875,0)" xlink:href="#be"/></g><path fill="#5e5e5e" d="M168 279c222 39 310-114 368-290L66-1082h192c120 299 249 590 362 896 115-301 235-597 351-896h190L705 0c-65 164-130 320-275 396-67 36-177 35-262 18V279" id="bs"/><path fill="#5e5e5e" d="M698-1104c312 3 392 244 392 558 0 315-82 566-392 566-169 0-277-65-331-184h-5c8 188 2 394 4 589H185V-858c0-76-1-156-6-224h175c6 52 9 120 10 178h4c58-122 150-202 330-200zm-49 991c225 0 255-203 255-433 0-225-32-419-253-419-236 0-285 192-285 441 0 237 53 411 283 411" id="bt"/><g id="R"><use transform="matrix(0.0087890625,0,0,0.0087890625,0,0)" xlink:href="#aW"/><use transform="matrix(0.0087890625,0,0,0.0087890625,10.8017578125,0)" xlink:href="#be"/><use transform="matrix(0.0087890625,0,0,0.0087890625,21.603515625,0)" xlink:href="#ba"/><use transform="matrix(0.0087890625,0,0,0.0087890625,32.4052734375,0)" xlink:href="#aW"/><use transform="matrix(0.0087890625,0,0,0.0087890625,43.20703125,0)" xlink:href="#bc"/><use transform="matrix(0.0087890625,0,0,0.0087890625,54.0087890625,0)" xlink:href="#aY"/><use transform="matrix(0.0087890625,0,0,0.0087890625,64.810546875,0)" xlink:href="#bf"/><use transform="matrix(0.0087890625,0,0,0.0087890625,75.6123046875,0)" xlink:href="#aX"/><use transform="matrix(0.0087890625,0,0,0.0087890625,86.4140625,0)" xlink:href="#bs"/><use transform="matrix(0.0087890625,0,0,0.0087890625,97.2158203125,0)" xlink:href="#bt"/><use transform="matrix(0.0087890625,0,0,0.0087890625,108.017578125,0)" xlink:href="#be"/></g><g id="S"><use transform="matrix(0.0087890625,0,0,0.0087890625,0,0)" xlink:href="#bi"/><use transform="matrix(0.0087890625,0,0,0.0087890625,10.8017578125,0)" xlink:href="#aZ"/><use transform="matrix(0.0087890625,0,0,0.0087890625,21.603515625,0)" xlink:href="#ba"/><use transform="matrix(0.0087890625,0,0,0.0087890625,32.4052734375,0)" xlink:href="#aX"/><use transform="matrix(0.0087890625,0,0,0.0087890625,43.20703125,0)" xlink:href="#bq"/><use transform="matrix(0.0087890625,0,0,0.0087890625,54.0087890625,0)" xlink:href="#br"/></g><path fill="#5e5e5e" d="M1034 0L896-382H333L196 0H0l510-1349h217L1228 0h-194zM847-531c-77-225-157-447-231-674-69 231-154 451-232 674h463" id="bu"/><g id="T"><use transform="matrix(0.0087890625,0,0,0.0087890625,0,0)" xlink:href="#bl"/><use transform="matrix(0.0087890625,0,0,0.0087890625,10.8017578125,0)" xlink:href="#bk"/><use transform="matrix(0.0087890625,0,0,0.0087890625,21.603515625,0)" xlink:href="#bm"/><use transform="matrix(0.0087890625,0,0,0.0087890625,32.4052734375,0)" xlink:href="#bu"/></g><path fill="#5e5e5e" d="M802-711c201 25 350 118 350 331C1152-95 921 0 634 0H162v-1349c401 9 908-74 908 327 0 184-111 275-268 311zm-224-69c174-2 300-51 300-218 0-163-124-198-302-198H353v416h225zM353-153c281-2 612 44 606-244-5-271-329-233-606-234v478" id="bv"/><g id="U"><use transform="matrix(0.0087890625,0,0,0.0087890625,0,0)" xlink:href="#bl"/><use transform="matrix(0.0087890625,0,0,0.0087890625,10.8017578125,0)" xlink:href="#bk"/><use transform="matrix(0.0087890625,0,0,0.0087890625,21.603515625,0)" xlink:href="#bm"/><use transform="matrix(0.0087890625,0,0,0.0087890625,32.4052734375,0)" xlink:href="#bv"/></g><path fill="#5e5e5e" d="M650-1214c-281 0-336 244-336 533 0 295 60 546 347 546 188 0 263-142 322-282l159 65C1058-155 935 20 659 20c-401 0-546-295-546-701 0-407 135-689 536-689 264 0 391 146 466 335l-168 65c-47-129-127-244-297-244" id="bw"/><g id="V"><use transform="matrix(0.0087890625,0,0,0.0087890625,0,0)" xlink:href="#bl"/><use transform="matrix(0.0087890625,0,0,0.0087890625,10.8017578125,0)" xlink:href="#bk"/><use transform="matrix(0.0087890625,0,0,0.0087890625,21.603515625,0)" xlink:href="#bm"/><use transform="matrix(0.0087890625,0,0,0.0087890625,32.4052734375,0)" xlink:href="#bw"/></g><path fill="#5e5e5e" d="M473-1349c438-1 655 221 652 661C1122-268 945-8 532 0H162v-1349h311zm42 1193c308-4 416-205 418-532 2-330-131-509-459-505H353v1037h162" id="bx"/><g id="W"><use transform="matrix(0.0087890625,0,0,0.0087890625,0,0)" xlink:href="#bl"/><use transform="matrix(0.0087890625,0,0,0.0087890625,10.8017578125,0)" xlink:href="#bk"/><use transform="matrix(0.0087890625,0,0,0.0087890625,21.603515625,0)" xlink:href="#bm"/><use transform="matrix(0.0087890625,0,0,0.0087890625,32.4052734375,0)" xlink:href="#bx"/></g><path fill="#5e5e5e" d="M614-1226c-167 1-283 53-283 213 0 183 186 193 334 234 230 63 463 120 463 409 0 286-219 387-518 390C309 23 131-98 79-338l185-37c34 165 149 248 351 246 184-2 324-58 324-238 0-203-207-221-372-266-210-57-422-111-422-377 0-267 201-356 470-360 279-5 430 101 480 324l-188 33c-28-141-121-215-293-213" id="by"/><g id="X"><use transform="matrix(0.0087890625,0,0,0.0087890625,0,0)" xlink:href="#bl"/><use transform="matrix(0.0087890625,0,0,0.0087890625,10.8017578125,0)" xlink:href="#bk"/><use transform="matrix(0.0087890625,0,0,0.0087890625,21.603515625,0)" xlink:href="#bm"/><use transform="matrix(0.0087890625,0,0,0.0087890625,32.4052734375,0)" xlink:href="#by"/><use transform="matrix(0.0087890625,0,0,0.0087890625,43.20703125,0)" xlink:href="#aX"/><use transform="matrix(0.0087890625,0,0,0.0087890625,54.0087890625,0)" xlink:href="#aY"/><use transform="matrix(0.0087890625,0,0,0.0087890625,64.810546875,0)" xlink:href="#aZ"/><use transform="matrix(0.0087890625,0,0,0.0087890625,75.6123046875,0)" xlink:href="#ba"/><use transform="matrix(0.0087890625,0,0,0.0087890625,86.4140625,0)" xlink:href="#bb"/></g><g id="Y"><use transform="matrix(0.0087890625,0,0,0.0087890625,0,0)" xlink:href="#bh"/><use transform="matrix(0.0087890625,0,0,0.0087890625,10.8017578125,0)" xlink:href="#be"/><use transform="matrix(0.0087890625,0,0,0.0087890625,21.603515625,0)" xlink:href="#aW"/><use transform="matrix(0.0087890625,0,0,0.0087890625,32.4052734375,0)" xlink:href="#aW"/><use transform="matrix(0.0087890625,0,0,0.0087890625,43.20703125,0)" xlink:href="#bk"/><use transform="matrix(0.0087890625,0,0,0.0087890625,54.0087890625,0)" xlink:href="#bb"/><use transform="matrix(0.0087890625,0,0,0.0087890625,64.810546875,0)" xlink:href="#be"/></g><g id="Z"><use transform="matrix(0.0087890625,0,0,0.0087890625,0,0)" xlink:href="#be"/><use transform="matrix(0.0087890625,0,0,0.0087890625,10.8017578125,0)" xlink:href="#bb"/><use transform="matrix(0.0087890625,0,0,0.0087890625,21.603515625,0)" xlink:href="#bc"/><use transform="matrix(0.0087890625,0,0,0.0087890625,32.4052734375,0)" xlink:href="#bf"/><use transform="matrix(0.0087890625,0,0,0.0087890625,43.20703125,0)" xlink:href="#aX"/><use transform="matrix(0.0087890625,0,0,0.0087890625,54.0087890625,0)" xlink:href="#bs"/><use transform="matrix(0.0087890625,0,0,0.0087890625,64.810546875,0)" xlink:href="#bt"/><use transform="matrix(0.0087890625,0,0,0.0087890625,75.6123046875,0)" xlink:href="#be"/></g><path fill="#5e5e5e" d="M365-904c58-129 161-200 334-200 130 0 228 46 293 138s98 233 98 420c0 189-34 331-102 425S824 20 698 20c-170 0-275-64-336-184 0 55-3 116-9 164H179c5-68 6-147 6-223v-1261h180c-2 193 4 394-4 580h4zm283 791c221 0 256-197 256-427 0-229-34-425-254-425-236 0-285 195-285 441 0 237 53 411 283 411" id="bz"/><g id="aa"><use transform="matrix(0.0087890625,0,0,0.0087890625,0,0)" xlink:href="#aW"/><use transform="matrix(0.0087890625,0,0,0.0087890625,10.8017578125,0)" xlink:href="#bs"/><use transform="matrix(0.0087890625,0,0,0.0087890625,21.603515625,0)" xlink:href="#bh"/><use transform="matrix(0.0087890625,0,0,0.0087890625,32.4052734375,0)" xlink:href="#bz"/><use transform="matrix(0.0087890625,0,0,0.0087890625,43.20703125,0)" xlink:href="#bc"/><use transform="matrix(0.0087890625,0,0,0.0087890625,54.0087890625,0)" xlink:href="#bm"/></g><path fill="#5e5e5e" d="M839-1335c-182-6-269 67-259 253h491v142H580V0H400v-940H138v-142h262c-15-293 132-408 418-402 94 2 200 7 281 21v145c-75-10-177-14-260-17" id="bA"/><g id="ab"><use transform="matrix(0.0087890625,0,0,0.0087890625,0,0)" xlink:href="#bh"/><use transform="matrix(0.0087890625,0,0,0.0087890625,10.8017578125,0)" xlink:href="#bc"/><use transform="matrix(0.0087890625,0,0,0.0087890625,21.603515625,0)" xlink:href="#bd"/><use transform="matrix(0.0087890625,0,0,0.0087890625,32.4052734375,0)" xlink:href="#aZ"/><use transform="matrix(0.0087890625,0,0,0.0087890625,43.20703125,0)" xlink:href="#bA"/><use transform="matrix(0.0087890625,0,0,0.0087890625,54.0087890625,0)" xlink:href="#aZ"/><use transform="matrix(0.0087890625,0,0,0.0087890625,64.810546875,0)" xlink:href="#bg"/><use transform="matrix(0.0087890625,0,0,0.0087890625,75.6123046875,0)" xlink:href="#bk"/><use transform="matrix(0.0087890625,0,0,0.0087890625,86.4140625,0)" xlink:href="#aX"/><use transform="matrix(0.0087890625,0,0,0.0087890625,97.2158203125,0)" xlink:href="#bc"/><use transform="matrix(0.0087890625,0,0,0.0087890625,108.017578125,0)" xlink:href="#aY"/></g><g id="ac"><use transform="matrix(0.0087890625,0,0,0.0087890625,0,0)" xlink:href="#bn"/><use transform="matrix(0.0087890625,0,0,0.0087890625,10.8017578125,0)" xlink:href="#bn"/><use transform="matrix(0.0087890625,0,0,0.0087890625,21.603515625,0)" xlink:href="#bn"/></g><g id="ad"><use transform="matrix(0.0087890625,0,0,0.0087890625,0,0)" xlink:href="#aY"/><use transform="matrix(0.0087890625,0,0,0.0087890625,10.8017578125,0)" xlink:href="#be"/><use transform="matrix(0.0087890625,0,0,0.0087890625,21.603515625,0)" xlink:href="#aW"/><use transform="matrix(0.0087890625,0,0,0.0087890625,32.4052734375,0)" xlink:href="#bi"/><use transform="matrix(0.0087890625,0,0,0.0087890625,43.20703125,0)" xlink:href="#bm"/><use transform="matrix(0.0087890625,0,0,0.0087890625,54.0087890625,0)" xlink:href="#aX"/></g><g id="ae"><use transform="matrix(0.0087890625,0,0,0.0087890625,0,0)" xlink:href="#aW"/><use transform="matrix(0.0087890625,0,0,0.0087890625,10.8017578125,0)" xlink:href="#bs"/><use transform="matrix(0.0087890625,0,0,0.0087890625,21.603515625,0)" xlink:href="#bh"/><use transform="matrix(0.0087890625,0,0,0.0087890625,32.4052734375,0)" xlink:href="#bz"/><use transform="matrix(0.0087890625,0,0,0.0087890625,43.20703125,0)" xlink:href="#bc"/><use transform="matrix(0.0087890625,0,0,0.0087890625,54.0087890625,0)" xlink:href="#bm"/></g><g id="af"><use transform="matrix(0.0087890625,0,0,0.0087890625,0,0)" xlink:href="#bh"/><use transform="matrix(0.0087890625,0,0,0.0087890625,10.8017578125,0)" xlink:href="#bc"/><use transform="matrix(0.0087890625,0,0,0.0087890625,21.603515625,0)" xlink:href="#bd"/><use transform="matrix(0.0087890625,0,0,0.0087890625,32.4052734375,0)" xlink:href="#aZ"/><use transform="matrix(0.0087890625,0,0,0.0087890625,43.20703125,0)" xlink:href="#bA"/><use transform="matrix(0.0087890625,0,0,0.0087890625,54.0087890625,0)" xlink:href="#aZ"/><use transform="matrix(0.0087890625,0,0,0.0087890625,64.810546875,0)" xlink:href="#bg"/><use transform="matrix(0.0087890625,0,0,0.0087890625,75.6123046875,0)" xlink:href="#bk"/><use transform="matrix(0.0087890625,0,0,0.0087890625,86.4140625,0)" xlink:href="#aX"/><use transform="matrix(0.0087890625,0,0,0.0087890625,97.2158203125,0)" xlink:href="#bc"/><use transform="matrix(0.0087890625,0,0,0.0087890625,108.017578125,0)" xlink:href="#aY"/></g></defs></g></svg>